<svg xmlns="http://www.w3.org/2000/svg" viewBox="0 0 64 64">
  <path fill="#85cbf8" d="M4.2 37.4h39.92s2.83.08 4.64-1.87c0 0-3.6-4.36.93-11.2 0 0 5.57 3.73 3.72 8.4 0 0 3.81-2.97 8.35.93 0 0-2.02 5.64-9.28 4.67 0 0-7.06 21.42-29.75 19.47C.04 55.84 4.21 37.4 4.21 37.4z"/>
  <path fill="#4181ca" d="M25.59 58.86c-.95 0-1.93-.05-2.94-.13-7.7-.67-13.26-3.26-16.52-7.72-4.5-6.15-2.9-13.51-2.83-13.82.1-.43.47-.73.9-.73h39.92c.05 0 1.95.03 3.43-1.09-.92-1.63-2.45-5.81 1.36-11.56a.93.93 0 011.3-.25c.22.14 4.7 3.2 4.5 7.48 1.96-.6 4.78-.56 7.66 1.91.29.26.4.66.27 1.03-.03.06-2.23 5.94-9.55 5.35-1.44 3.6-8.9 19.53-27.5 19.53zM4.99 38.33c-.24 1.9-.57 7.2 2.66 11.6 2.93 3.99 8.03 6.32 15.16 6.94.95.08 1.87.12 2.76.12 19.55 0 25.96-18.76 26.02-18.96a.93.93 0 011.01-.63c5.1.68 7.3-2.18 8-3.47-3.62-2.68-6.5-.56-6.63-.46-.33.25-.98.57-1.32.31-.33-.25-.27-1-.11-1.4 1.17-2.94-1.28-5.55-2.6-6.68-3.3 5.69-.49 9.2-.46 9.23.3.36.29.89-.03 1.23-2.08 2.24-5.22 2.17-5.35 2.16z"/>
  <circle cx="14.64" cy="45.33" r="2.33" fill="#4181ca"/>
  <path fill="#85cbf8" d="M5.77 29.93h7.46v7.46H5.77zM13.24 29.93h7.46v7.46h-7.46zM20.7 29.93h7.46v7.46H20.7zM28.17 29.93h7.46v7.46h-7.46zM13.24 22.46h7.46v7.46h-7.46zM20.7 22.46h7.46v7.46H20.7zM28.17 22.46h7.46v7.46h-7.46zM28.17 15h7.46v7.46h-7.46zM35.63 29.93h7.46v7.46h-7.46z"/>
  <path fill="#4181ca" d="M43.1 29h-6.53V15a.94.94 0 00-.94-.93h-7.46a.94.94 0 00-.93.93v6.53h-14a.94.94 0 00-.93.93V29H5.77a.94.94 0 00-.93.93v7.46c0 .52.42.94.93.94H43.1c.51 0 .93-.42.93-.94v-7.46a.94.94 0 00-.93-.93zm-30.8 7.46H6.7v-5.6h5.6zm7.47 0h-5.6v-5.6h5.6zm7.47 0h-5.6v-5.6h5.6zm0-7.46h-5.6v-2.8a.93.93 0 00-1.87 0V29h-5.6v-5.6h13.07zm7.46 7.46h-5.6v-5.6h2.8c.51 0 .93-.42.93-.93a.94.94 0 00-.93-.93h-2.8v-5.6h5.6zm0-14.93h-5.6v-5.6h5.6zm7.47 14.93h-5.6v-5.6h5.6z"/>
  <g fill="#00bfde" fill-opacity=".81">
    <path d="M11.92 26.16h-.27c-.1 1.14-.25 2.51-2.13 2.51h-.86c-.5 0-.52-.07-.52-.44v-5.9c0-.37 0-.53 1-.53h.35v-.33c-.38.03-1.34.03-1.77.03-.42 0-1.25 0-1.61-.03v.33h.24c.82 0 .84.12.84.52v5.83c0 .4-.02.52-.84.52h-.24v.35h5.52l.29-2.86zM17.08 13.23c-.06-.2-.09-.27-.27-.27-.18 0-.22.07-.27.27l-2.23 7.04c-.1.3-.27.83-1.13.83v.43h2.15v-.43c-.43 0-.7-.24-.7-.59 0-.09.02-.12.05-.24l.47-1.48h2.74l.56 1.75c.03.07.05.16.05.21 0 .35-.52.35-.79.35v.43h2.73v-.43h-.2c-.64 0-.71-.12-.8-.47l-2.36-7.4zm-.56 1.23l1.24 3.9h-2.47l1.23-3.9zM26.73 13.34h-6.8l-.2 2.73h.26c.16-1.96.32-2.36 2.01-2.36.2 0 .5 0 .6.02.24.05.24.18.24.46v6.42c0 .41 0 .58-1.17.58h-.45v.38c.46-.04 1.59-.04 2.1-.04s1.66 0 2.12.04v-.38H25c-1.18 0-1.18-.17-1.18-.58v-6.42c0-.24 0-.41.2-.46.13-.02.43-.02.64-.02 1.68 0 1.84.4 2 2.36h.28l-.21-2.73zM35.37 11.15h-.28c-.28 1.74-.54 2.57-2.48 2.57h-1.5c-.53 0-.55-.08-.55-.46v-3.01h1c1.1 0 1.23.36 1.23 1.32h.28V8.58h-.28c0 .97-.13 1.32-1.23 1.32h-1V7.19c0-.38.02-.46.55-.46h1.45c1.74 0 2.03.63 2.21 2.2h.29l-.32-2.54h-6.35v.34h.26c.87 0 .9.13.9.54v5.91c0 .41-.03.54-.9.54h-.26v.35h6.5l.48-2.92zM40.81 24.67l1.55-2.27c.24-.36.63-.72 1.64-.74v-.34h-2.7v.34c.45.02.7.26.7.53 0 .1-.02.13-.1.26l-1.3 1.9-1.44-2.18c-.03-.03-.08-.12-.08-.17 0-.13.25-.32.72-.34v-.34c-.38.04-1.21.04-1.64.04-.35 0-1.06-.01-1.48-.04v.34h.22c.62 0 .84.08 1.05.4l2.08 3.14-1.85 2.73c-.16.23-.5.75-1.63.75v.35h2.7v-.35c-.53 0-.72-.32-.72-.52 0-.1.04-.15.12-.27l1.6-2.37 1.79 2.7c.02.04.05.09.05.12 0 .14-.25.33-.74.34v.35C41.75 29 42.58 29 43 29c.48 0 1 .01 1.47.03v-.35h-.21c-.6 0-.83-.05-1.07-.4l-2.38-3.61z"/>
  </g>
</svg>